<?xml version="1.0" encoding="UTF-8"?>
<svg xmlns="http://www.w3.org/2000/svg" viewBox="0 0 579 593">
<rect width="579" height="593" fill="white"/>
<rect x="135" y="95" width="58" height="115" rx="10" fill="#43B45D"/>
<rect x="248" y="40" width="58" height="170" rx="10" fill="#4B57F5"/>
<rect x="361" y="70" width="58" height="140" rx="10" fill="#F35A5A"/>
<path fill="#1F2937" d="
M55 225
L110 225
Q118 225 122 233
L181 376
Q185 386 193 386
Q201 386 205 376
L253 257
Q258 245 270 245
L308 245
Q320 245 325 257
L373 376
Q377 386 385 386
Q393 386 397 376
L456 233
Q460 225 468 225
L524 225
Q536 225 530 237
L427 483
Q423 493 412 493
L359 493
Q348 493 343 482
L289 363
L236 482
Q231 493 220 493
L167 493
Q156 493 152 483
L49 237
Q43 225 55 225 Z"/>
</svg>